<svg width="16" height="16" viewBox="0 0 16 16" fill="none" xmlns="http://www.w3.org/2000/svg">
<path d="M14 2.66666H11.9333C11.6144 1.11572 10.2501 0.002 8.66666 0H7.33331C5.74991 0.002 4.38559 1.11572 4.06666 2.66666H2C1.63181 2.66666 1.33334 2.96513 1.33334 3.33331C1.33334 3.7015 1.63181 4 2 4H2.66666V12.6667C2.66887 14.5067 4.15997 15.9978 6 16H10C11.84 15.9978 13.3311 14.5067 13.3333 12.6667V4H14C14.3682 4 14.6667 3.70153 14.6667 3.33334C14.6667 2.96516 14.3682 2.66666 14 2.66666ZM7.33334 11.3333C7.33334 11.7015 7.03487 12 6.66669 12C6.29847 12 6 11.7015 6 11.3333V7.33334C6 6.96516 6.29847 6.66669 6.66666 6.66669C7.03484 6.66669 7.33331 6.96516 7.33331 7.33334V11.3333H7.33334ZM10 11.3333C10 11.7015 9.70153 12 9.33334 12C8.96516 12 8.66669 11.7015 8.66669 11.3333V7.33334C8.66669 6.96516 8.96516 6.66669 9.33334 6.66669C9.70153 6.66669 10 6.96516 10 7.33334V11.3333ZM5.44734 2.66666C5.73091 1.86819 6.48603 1.33434 7.33334 1.33331H8.66669C9.514 1.33434 10.2691 1.86819 10.5527 2.66666H5.44734Z" fill="#727A90"/>
</svg>
