<svg width="88" height="88" viewBox="0 0 88 88" fill="none" xmlns="http://www.w3.org/2000/svg">
<rect width="88" height="88" rx="44" fill="#FFECEC"/>
<path d="M59 30.6666H53.8334C53.036 26.7893 49.6252 24.005 45.6667 24H42.3333C38.3748 24.005 34.964 26.7893 34.1667 30.6666H29C28.0795 30.6666 27.3334 31.4128 27.3334 32.3333C27.3334 33.2537 28.0795 34 29 34H30.6667V55.6666C30.6722 60.2667 34.3999 63.9945 39 64H49C53.6001 63.9945 57.3278 60.2667 57.3334 55.6666V34H59C59.9205 34 60.6667 33.2538 60.6667 32.3334C60.6667 31.4129 59.9205 30.6666 59 30.6666ZM42.3334 52.3334C42.3334 53.2538 41.5872 54 40.6667 54C39.7462 54 39 53.2538 39 52.3334V42.3334C39 41.4129 39.7462 40.6667 40.6667 40.6667C41.5871 40.6667 42.3333 41.4129 42.3333 42.3334V52.3334H42.3334ZM49 52.3334C49 53.2538 48.2538 54 47.3334 54C46.4129 54 45.6667 53.2538 45.6667 52.3334V42.3334C45.6667 41.4129 46.4129 40.6667 47.3334 40.6667C48.2538 40.6667 49 41.4129 49 42.3334V52.3334ZM37.6184 30.6666C38.3273 28.6705 40.2151 27.3359 42.3334 27.3333H45.6667C47.785 27.3359 49.6728 28.6705 50.3817 30.6666H37.6184Z" fill="#CB0101"/>
</svg>
