<svg width="18" height="18" viewBox="0 0 18 18" fill="none" xmlns="http://www.w3.org/2000/svg">
<path d="M8.99997 11.9988C10.6562 11.9988 11.9988 10.6562 11.9988 8.99997C11.9988 7.34374 10.6562 6.0011 8.99997 6.0011C7.34374 6.0011 6.0011 7.34374 6.0011 8.99997C6.0011 10.6562 7.34374 11.9988 8.99997 11.9988Z" fill="#727A90"/>
<path d="M17.4501 7.06503C16.2873 5.17123 13.6423 1.9939 8.99998 1.9939C4.35771 1.9939 1.71269 5.17123 0.549868 7.06503C-0.183289 8.25086 -0.183289 9.74923 0.549868 10.9351C1.71269 12.8289 4.35771 16.0062 8.99998 16.0062C13.6423 16.0062 16.2873 12.8289 17.4501 10.9351C18.1833 9.74923 18.1833 8.25086 17.4501 7.06503ZM8.99998 13.4984C6.51564 13.4984 4.50165 11.4844 4.50165 9.00005C4.50165 6.5157 6.51564 4.50172 8.99998 4.50172C11.4843 4.50172 13.4983 6.5157 13.4983 9.00005C13.4958 11.4834 11.4833 13.4959 8.99998 13.4984Z" fill="#727A90"/>
</svg>
