<svg width="20" height="20" viewBox="0 0 20 20" fill="none" xmlns="http://www.w3.org/2000/svg">
<g clip-path="url(#clip0_4210_11486)">
<path d="M2.78133 14.7458C2.2812 15.2458 2.00015 15.9239 2 16.6311V17.9998H3.36867C4.07585 17.9996 4.75402 17.7186 5.254 17.2184L14.1493 8.32313L11.6767 5.85046L2.78133 14.7458Z" fill="white"/>
<path d="M17.4299 2.57012C17.2675 2.40761 17.0748 2.27869 16.8626 2.19073C16.6504 2.10277 16.4229 2.0575 16.1932 2.0575C15.9635 2.0575 15.7361 2.10277 15.5239 2.19073C15.3117 2.27869 15.1189 2.40761 14.9566 2.57012L12.6192 4.90812L15.0919 7.38078L17.4299 5.04345C17.5924 4.88111 17.7213 4.68833 17.8093 4.47614C17.8972 4.26394 17.9425 4.03649 17.9425 3.80678C17.9425 3.57708 17.8972 3.34963 17.8093 3.13743C17.7213 2.92524 17.5924 2.73246 17.4299 2.57012Z" fill="white"/>
</g>
<defs>
<clipPath id="clip0_4210_11486">
<rect width="16" height="16" fill="white" transform="translate(2 2)"/>
</clipPath>
</defs>
</svg>
