<svg width="24" height="24" viewBox="0 0 24 24" fill="none" xmlns="http://www.w3.org/2000/svg">
<g clip-path="url(#clip0_37_68405)">
<path d="M22.9419 6.83693L20.7599 4.65393L21.7069 3.70693C21.8024 3.61468 21.8786 3.50434 21.931 3.38233C21.9834 3.26033 22.011 3.12911 22.0121 2.99633C22.0133 2.86355 21.988 2.73187 21.9377 2.60897C21.8874 2.48608 21.8131 2.37443 21.7193 2.28053C21.6254 2.18664 21.5137 2.11239 21.3908 2.06211C21.2679 2.01183 21.1362 1.98652 21.0035 1.98768C20.8707 1.98883 20.7395 2.01642 20.6175 2.06883C20.4955 2.12124 20.3851 2.19742 20.2929 2.29293L19.3459 3.23993L17.1629 1.05793C16.4748 0.40225 15.5608 0.036499 14.6104 0.036499C13.6599 0.036499 12.7459 0.40225 12.0579 1.05793C11.7224 1.39309 11.4563 1.79108 11.2748 2.22914C11.0932 2.66719 10.9998 3.13674 10.9998 3.61093C10.9998 4.08512 11.0932 4.55466 11.2748 4.99272C11.4563 5.43078 11.7224 5.82876 12.0579 6.16393L14.2399 8.34593L8.34586 14.2399L6.16286 12.0579C5.4748 11.4022 4.5608 11.0365 3.61036 11.0365C2.65992 11.0365 1.74592 11.4022 1.05786 12.0579C0.722418 12.3931 0.456315 12.7911 0.274759 13.2291C0.093204 13.6672 -0.000244141 14.1367 -0.000244141 14.6109C-0.000244141 15.0851 0.093204 15.5547 0.274759 15.9927C0.456315 16.4308 0.722418 16.8288 1.05786 17.1639L3.23986 19.3459L2.29286 20.2929C2.19735 20.3852 2.12117 20.4955 2.06876 20.6175C2.01635 20.7395 1.98876 20.8707 1.98761 21.0035C1.98646 21.1363 2.01176 21.268 2.06204 21.3909C2.11232 21.5138 2.18657 21.6254 2.28046 21.7193C2.37436 21.8132 2.48601 21.8875 2.60891 21.9377C2.7318 21.988 2.86348 22.0133 2.99626 22.0122C3.12904 22.011 3.26026 21.9834 3.38226 21.931C3.50427 21.8786 3.61461 21.8024 3.70686 21.7069L4.65386 20.7599L6.83686 22.9419C7.17201 23.2772 7.56993 23.5432 8.00789 23.7247C8.44586 23.9061 8.91529 23.9995 9.38936 23.9995C9.86343 23.9995 10.3329 23.9061 10.7708 23.7247C11.2088 23.5432 11.6067 23.2772 11.9419 22.9419C12.2773 22.6068 12.5434 22.2089 12.7249 21.771C12.9064 21.333 12.9999 20.8635 12.9999 20.3894C12.9999 19.9153 12.9064 19.4459 12.7249 19.0079C12.5434 18.5699 12.2773 18.172 11.9419 17.8369L9.75986 15.6549L15.6599 9.75993L17.8419 11.9419C18.177 12.2772 18.5749 12.5432 19.0129 12.7247C19.4509 12.9061 19.9203 12.9995 20.3944 12.9995C20.8684 12.9995 21.3379 12.9061 21.7758 12.7247C22.2138 12.5432 22.6117 12.2772 22.9469 11.9419C23.2823 11.6068 23.5484 11.2089 23.7299 10.771C23.9114 10.333 24.0049 9.86354 24.0049 9.38943C24.0049 8.91532 23.9114 8.44586 23.7299 8.00788C23.5484 7.56991 23.2823 7.17201 22.9469 6.83693H22.9419Z" fill="#FFFF"/>
</g>
<defs>
<clipPath id="clip0_37_68405">
<rect width="24" height="24" fill="white"/>
</clipPath>
</defs>
</svg>
