<svg width="40" height="40" viewBox="0 0 40 40" fill="none" xmlns="http://www.w3.org/2000/svg">
<rect width="40" height="40" rx="10" fill="#EFF0F3"/>
<g clip-path="url(#clip0_4210_11489)">
<path d="M12.5867 21.3934L15.1667 24.0001C15.2287 24.0625 15.3024 24.1121 15.3837 24.146C15.4649 24.1798 15.5521 24.1973 15.6401 24.1973C15.7281 24.1973 15.8152 24.1798 15.8965 24.146C15.9777 24.1121 16.0514 24.0625 16.1134 24.0001C16.1759 23.9381 16.2255 23.8643 16.2593 23.7831C16.2932 23.7019 16.3106 23.6147 16.3106 23.5267C16.3106 23.4387 16.2932 23.3516 16.2593 23.2703C16.2255 23.1891 16.1759 23.1154 16.1134 23.0534L13.7401 20.6667H27.3334C27.5102 20.6667 27.6798 20.5965 27.8048 20.4715C27.9298 20.3464 28.0001 20.1769 28.0001 20.0001C28.0001 19.8232 27.9298 19.6537 27.8048 19.5287C27.6798 19.4036 27.5102 19.3334 27.3334 19.3334H13.7001L16.1134 16.9201C16.2316 16.7961 16.2975 16.6313 16.2975 16.4601C16.2975 16.2888 16.2316 16.124 16.1134 16.0001C16.0514 15.9376 15.9777 15.888 15.8965 15.8541C15.8152 15.8203 15.7281 15.8029 15.6401 15.8029C15.5521 15.8029 15.4649 15.8203 15.3837 15.8541C15.3024 15.888 15.2287 15.9376 15.1667 16.0001L12.5867 18.5667C12.2122 18.9417 12.0018 19.4501 12.0018 19.9801C12.0018 20.5101 12.2122 21.0184 12.5867 21.3934Z" fill="#727A90"/>
</g>
<defs>
<clipPath id="clip0_4210_11489">
<rect width="16" height="16" fill="white" transform="translate(12 12)"/>
</clipPath>
</defs>
</svg>
