<svg width="24" height="24" viewBox="0 0 24 24" fill="none" xmlns="http://www.w3.org/2000/svg">
<g clip-path="url(#clip0_37_68517)">
<path d="M12.0002 7.94582C12.8413 7.94582 13.5232 7.26393 13.5232 6.4228C13.5232 5.58167 12.8413 4.89978 12.0002 4.89978C11.1591 4.89978 10.4772 5.58167 10.4772 6.4228C10.4772 7.26393 11.1591 7.94582 12.0002 7.94582Z" fill="#374957"/>
<path d="M20 0.000640869H3.99994C1.77623 0.018219 -0.0133608 1.83289 -4.82718e-05 4.05664V16.2266C-0.0133608 18.4505 1.77609 20.2655 3.99994 20.2836H6.92292L10.6709 23.4836C11.4133 24.1621 12.5477 24.172 13.3019 23.5066L17.1469 20.2826H19.9999C22.2238 20.2645 24.0132 18.4495 23.9999 16.2256V4.05664C24.0133 1.83289 22.2237 0.018219 20 0.000640869ZM12 3.04264C16.6149 3.16466 16.614 10.0197 12 10.1427C7.38497 10.0196 7.38595 3.16761 12 3.04264ZM16.2489 17.2086C15.7138 17.3452 15.1693 17.022 15.0328 16.4869C15.0322 16.4845 15.0315 16.4821 15.0309 16.4796C14.5191 14.8054 12.7469 13.8631 11.0727 14.3749C10.0649 14.683 9.27605 15.4718 8.96794 16.4796C8.8282 17.0142 8.28155 17.3344 7.74694 17.1946C7.21233 17.0549 6.89222 16.5082 7.03195 15.9736C7.8052 13.2296 10.6565 11.632 13.4005 12.4052C15.13 12.8926 16.4816 14.2442 16.9689 15.9736C17.1082 16.5131 16.787 17.064 16.2489 17.2086Z" fill="#374957"/>
</g>
<defs>
<clipPath id="clip0_37_68517">
<rect width="24" height="24" fill="white"/>
</clipPath>
</defs>
</svg>
